<?xml version="1.0" encoding="UTF-8" standalone="no"?>
<!DOCTYPE svg PUBLIC "-//W3C//DTD SVG 1.1//EN"
 "http://www.w3.org/Graphics/SVG/1.1/DTD/svg11.dtd">
<!-- Generated by graphviz version 12.2.1 (20241206.2353)
 -->
<!-- Title: G Pages: 1 -->
<svg width="667pt" height="319pt"
 viewBox="0.00 0.00 666.70 318.95" xmlns="http://www.w3.org/2000/svg" xmlns:xlink="http://www.w3.org/1999/xlink">
<g id="graph0" class="graph" transform="scale(1 1) rotate(0) translate(21.6 297.35)">
<title>G</title>
<polygon fill="#111111" stroke="none" points="-21.6,21.6 -21.6,-297.35 645.1,-297.35 645.1,21.6 -21.6,21.6"/>
<!-- App.css -->
<g id="node1" class="node">
<title>App.css</title>
<path fill="none" stroke="#cfffac" d="M324.33,-275.75C324.33,-275.75 276.17,-275.75 276.17,-275.75 272.21,-275.75 268.25,-271.79 268.25,-267.83 268.25,-267.83 268.25,-259.92 268.25,-259.92 268.25,-255.96 272.21,-252 276.17,-252 276.17,-252 324.33,-252 324.33,-252 328.29,-252 332.25,-255.96 332.25,-259.92 332.25,-259.92 332.25,-267.83 332.25,-267.83 332.25,-271.79 328.29,-275.75 324.33,-275.75"/>
<text text-anchor="middle" x="300.25" y="-258.45" font-family="Arial" font-size="14.00" fill="#cfffac">App.css</text>
</g>
<!-- App.jsx -->
<g id="node2" class="node">
<title>App.jsx</title>
<path fill="none" stroke="#c6c5fe" d="M160.58,-170.75C160.58,-170.75 116.17,-170.75 116.17,-170.75 112.21,-170.75 108.25,-166.79 108.25,-162.83 108.25,-162.83 108.25,-154.92 108.25,-154.92 108.25,-150.96 112.21,-147 116.17,-147 116.17,-147 160.58,-147 160.58,-147 164.54,-147 168.5,-150.96 168.5,-154.92 168.5,-154.92 168.5,-162.83 168.5,-162.83 168.5,-166.79 164.54,-170.75 160.58,-170.75"/>
<text text-anchor="middle" x="138.38" y="-153.45" font-family="Arial" font-size="14.00" fill="#c6c5fe">App.jsx</text>
</g>
<!-- App.jsx&#45;&gt;App.css -->
<g id="edge1" class="edge">
<title>App.jsx&#45;&gt;App.css</title>
<path fill="none" stroke="#757575" d="M146.16,-171.01C157.16,-189.52 180.69,-224.59 210.5,-242.88 224.27,-251.32 241.15,-256.37 256.49,-259.39"/>
<polygon fill="#757575" stroke="#757575" points="255.89,-262.84 266.34,-261.07 257.07,-255.94 255.89,-262.84"/>
</g>
<!-- BrowsePage.jsx -->
<g id="node3" class="node">
<title>BrowsePage.jsx</title>
<path fill="none" stroke="#c6c5fe" d="M348.71,-233.75C348.71,-233.75 251.79,-233.75 251.79,-233.75 247.83,-233.75 243.88,-229.79 243.88,-225.83 243.88,-225.83 243.88,-217.92 243.88,-217.92 243.88,-213.96 247.83,-210 251.79,-210 251.79,-210 348.71,-210 348.71,-210 352.67,-210 356.62,-213.96 356.62,-217.92 356.62,-217.92 356.62,-225.83 356.62,-225.83 356.62,-229.79 352.67,-233.75 348.71,-233.75"/>
<text text-anchor="middle" x="300.25" y="-216.45" font-family="Arial" font-size="14.00" fill="#c6c5fe">BrowsePage.jsx</text>
</g>
<!-- App.jsx&#45;&gt;BrowsePage.jsx -->
<g id="edge2" class="edge">
<title>App.jsx&#45;&gt;BrowsePage.jsx</title>
<path fill="none" stroke="#757575" d="M156.73,-171.14C170.68,-180.49 191.08,-193.05 210.5,-200.88 217.51,-203.7 224.98,-206.2 232.51,-208.4"/>
<polygon fill="#757575" stroke="#757575" points="231.5,-211.75 242.07,-211.01 233.35,-204.99 231.5,-211.75"/>
</g>
<!-- DocumentListPage.jsx -->
<g id="node4" class="node">
<title>DocumentListPage.jsx</title>
<path fill="none" stroke="#cfffac" d="M367.83,-191.75C367.83,-191.75 232.67,-191.75 232.67,-191.75 228.71,-191.75 224.75,-187.79 224.75,-183.83 224.75,-183.83 224.75,-175.92 224.75,-175.92 224.75,-171.96 228.71,-168 232.67,-168 232.67,-168 367.83,-168 367.83,-168 371.79,-168 375.75,-171.96 375.75,-175.92 375.75,-175.92 375.75,-183.83 375.75,-183.83 375.75,-187.79 371.79,-191.75 367.83,-191.75"/>
<text text-anchor="middle" x="300.25" y="-174.45" font-family="Arial" font-size="14.00" fill="#cfffac">DocumentListPage.jsx</text>
</g>
<!-- App.jsx&#45;&gt;DocumentListPage.jsx -->
<g id="edge3" class="edge">
<title>App.jsx&#45;&gt;DocumentListPage.jsx</title>
<path fill="none" stroke="#757575" d="M168.7,-162.73C181.52,-164.41 197.28,-166.48 213.37,-168.59"/>
<polygon fill="#757575" stroke="#757575" points="212.66,-172.03 223.03,-169.86 213.57,-165.09 212.66,-172.03"/>
</g>
<!-- DocumentManagePage.jsx -->
<g id="node5" class="node">
<title>DocumentManagePage.jsx</title>
<path fill="none" stroke="#c6c5fe" d="M382.08,-107.75C382.08,-107.75 218.42,-107.75 218.42,-107.75 214.46,-107.75 210.5,-103.79 210.5,-99.83 210.5,-99.83 210.5,-91.92 210.5,-91.92 210.5,-87.96 214.46,-84 218.42,-84 218.42,-84 382.08,-84 382.08,-84 386.04,-84 390,-87.96 390,-91.92 390,-91.92 390,-99.83 390,-99.83 390,-103.79 386.04,-107.75 382.08,-107.75"/>
<text text-anchor="middle" x="300.25" y="-90.45" font-family="Arial" font-size="14.00" fill="#c6c5fe">DocumentManagePage.jsx</text>
</g>
<!-- App.jsx&#45;&gt;DocumentManagePage.jsx -->
<g id="edge4" class="edge">
<title>App.jsx&#45;&gt;DocumentManagePage.jsx</title>
<path fill="none" stroke="#757575" d="M159.8,-146.71C180.33,-134.51 209.14,-117.42 210.5,-116.88 215.38,-114.91 220.5,-113.1 225.69,-111.44"/>
<polygon fill="#757575" stroke="#757575" points="226.41,-114.88 234.99,-108.67 224.41,-108.17 226.41,-114.88"/>
</g>
<!-- DocumentViewer.jsx -->
<g id="node6" class="node">
<title>DocumentViewer.jsx</title>
<path fill="none" stroke="#c6c5fe" d="M361.83,-149.75C361.83,-149.75 238.67,-149.75 238.67,-149.75 234.71,-149.75 230.75,-145.79 230.75,-141.83 230.75,-141.83 230.75,-133.92 230.75,-133.92 230.75,-129.96 234.71,-126 238.67,-126 238.67,-126 361.83,-126 361.83,-126 365.79,-126 369.75,-129.96 369.75,-133.92 369.75,-133.92 369.75,-141.83 369.75,-141.83 369.75,-145.79 365.79,-149.75 361.83,-149.75"/>
<text text-anchor="middle" x="300.25" y="-132.45" font-family="Arial" font-size="14.00" fill="#c6c5fe">DocumentViewer.jsx</text>
</g>
<!-- App.jsx&#45;&gt;DocumentViewer.jsx -->
<g id="edge5" class="edge">
<title>App.jsx&#45;&gt;DocumentViewer.jsx</title>
<path fill="none" stroke="#757575" d="M168.7,-155.02C183.03,-153.14 201.05,-150.77 219.09,-148.4"/>
<polygon fill="#757575" stroke="#757575" points="219.33,-151.9 228.79,-147.13 218.42,-144.96 219.33,-151.9"/>
</g>
<!-- EditPage.jsx -->
<g id="node7" class="node">
<title>EditPage.jsx</title>
<path fill="none" stroke="#c6c5fe" d="M337.83,-44.75C337.83,-44.75 262.67,-44.75 262.67,-44.75 258.71,-44.75 254.75,-40.79 254.75,-36.83 254.75,-36.83 254.75,-28.92 254.75,-28.92 254.75,-24.96 258.71,-21 262.67,-21 262.67,-21 337.83,-21 337.83,-21 341.79,-21 345.75,-24.96 345.75,-28.92 345.75,-28.92 345.75,-36.83 345.75,-36.83 345.75,-40.79 341.79,-44.75 337.83,-44.75"/>
<text text-anchor="middle" x="300.25" y="-27.45" font-family="Arial" font-size="14.00" fill="#c6c5fe">EditPage.jsx</text>
</g>
<!-- App.jsx&#45;&gt;EditPage.jsx -->
<g id="edge6" class="edge">
<title>App.jsx&#45;&gt;EditPage.jsx</title>
<path fill="none" stroke="#757575" d="M163.64,-146.64C167.53,-144.06 171.32,-141.12 174.5,-137.88 197.08,-114.85 186.83,-96.78 210.5,-74.88 221.86,-64.36 236.34,-56.01 250.29,-49.63"/>
<polygon fill="#757575" stroke="#757575" points="251.59,-52.88 259.4,-45.72 248.83,-46.44 251.59,-52.88"/>
</g>
<!-- BrowsePage.css -->
<g id="node8" class="node">
<title>BrowsePage.css</title>
<path fill="none" stroke="#cfffac" d="M575.08,-233.75C575.08,-233.75 474.42,-233.75 474.42,-233.75 470.46,-233.75 466.5,-229.79 466.5,-225.83 466.5,-225.83 466.5,-217.92 466.5,-217.92 466.5,-213.96 470.46,-210 474.42,-210 474.42,-210 575.08,-210 575.08,-210 579.04,-210 583,-213.96 583,-217.92 583,-217.92 583,-225.83 583,-225.83 583,-229.79 579.04,-233.75 575.08,-233.75"/>
<text text-anchor="middle" x="524.75" y="-216.45" font-family="Arial" font-size="14.00" fill="#cfffac">BrowsePage.css</text>
</g>
<!-- BrowsePage.jsx&#45;&gt;BrowsePage.css -->
<g id="edge7" class="edge">
<title>BrowsePage.jsx&#45;&gt;BrowsePage.css</title>
<path fill="none" stroke="#757575" d="M357.11,-221.88C386.8,-221.88 423.57,-221.88 455,-221.88"/>
<polygon fill="#757575" stroke="#757575" points="454.8,-225.38 464.8,-221.88 454.8,-218.38 454.8,-225.38"/>
</g>
<!-- assets/ai&#45;stars.png -->
<g id="node9" class="node">
<title>assets/ai&#45;stars.png</title>
<path fill="none" stroke="#cfffac" d="M581.46,-191.75C581.46,-191.75 468.04,-191.75 468.04,-191.75 464.08,-191.75 460.12,-187.79 460.12,-183.83 460.12,-183.83 460.12,-175.92 460.12,-175.92 460.12,-171.96 464.08,-168 468.04,-168 468.04,-168 581.46,-168 581.46,-168 585.42,-168 589.38,-171.96 589.38,-175.92 589.38,-175.92 589.38,-183.83 589.38,-183.83 589.38,-187.79 585.42,-191.75 581.46,-191.75"/>
<text text-anchor="middle" x="524.75" y="-174.45" font-family="Arial" font-size="14.00" fill="#cfffac">assets/ai&#45;stars.png</text>
</g>
<!-- BrowsePage.jsx&#45;&gt;assets/ai&#45;stars.png -->
<g id="edge8" class="edge">
<title>BrowsePage.jsx&#45;&gt;assets/ai&#45;stars.png</title>
<path fill="none" stroke="#757575" d="M357.11,-211.33C384.85,-206.1 418.75,-199.69 448.72,-194.04"/>
<polygon fill="#757575" stroke="#757575" points="449.33,-197.49 458.5,-192.19 448.03,-190.61 449.33,-197.49"/>
</g>
<!-- DocumentManagePage.css -->
<g id="node10" class="node">
<title>DocumentManagePage.css</title>
<path fill="none" stroke="#cfffac" d="M608.46,-107.75C608.46,-107.75 441.04,-107.75 441.04,-107.75 437.08,-107.75 433.12,-103.79 433.12,-99.83 433.12,-99.83 433.12,-91.92 433.12,-91.92 433.12,-87.96 437.08,-84 441.04,-84 441.04,-84 608.46,-84 608.46,-84 612.42,-84 616.38,-87.96 616.38,-91.92 616.38,-91.92 616.38,-99.83 616.38,-99.83 616.38,-103.79 612.42,-107.75 608.46,-107.75"/>
<text text-anchor="middle" x="524.75" y="-90.45" font-family="Arial" font-size="14.00" fill="#cfffac">DocumentManagePage.css</text>
</g>
<!-- DocumentManagePage.jsx&#45;&gt;DocumentManagePage.css -->
<g id="edge9" class="edge">
<title>DocumentManagePage.jsx&#45;&gt;DocumentManagePage.css</title>
<path fill="none" stroke="#757575" d="M390.47,-95.88C400.68,-95.88 411.15,-95.88 421.51,-95.88"/>
<polygon fill="#757575" stroke="#757575" points="421.18,-99.38 431.18,-95.88 421.18,-92.38 421.18,-99.38"/>
</g>
<!-- DocumentManageSidebar.css -->
<g id="node11" class="node">
<title>DocumentManageSidebar.css</title>
<path fill="none" stroke="#cfffac" d="M615.58,-65.75C615.58,-65.75 433.92,-65.75 433.92,-65.75 429.96,-65.75 426,-61.79 426,-57.83 426,-57.83 426,-49.92 426,-49.92 426,-45.96 429.96,-42 433.92,-42 433.92,-42 615.58,-42 615.58,-42 619.54,-42 623.5,-45.96 623.5,-49.92 623.5,-49.92 623.5,-57.83 623.5,-57.83 623.5,-61.79 619.54,-65.75 615.58,-65.75"/>
<text text-anchor="middle" x="524.75" y="-48.45" font-family="Arial" font-size="14.00" fill="#cfffac">DocumentManageSidebar.css</text>
</g>
<!-- DocumentManagePage.jsx&#45;&gt;DocumentManageSidebar.css -->
<g id="edge10" class="edge">
<title>DocumentManagePage.jsx&#45;&gt;DocumentManageSidebar.css</title>
<path fill="none" stroke="#757575" d="M366.8,-83.5C392.04,-78.74 421.08,-73.26 447.25,-68.31"/>
<polygon fill="#757575" stroke="#757575" points="447.62,-71.81 456.79,-66.51 446.32,-64.93 447.62,-71.81"/>
</g>
<!-- DocumentViewer.jsx&#45;&gt;assets/ai&#45;stars.png -->
<g id="edge12" class="edge">
<title>DocumentViewer.jsx&#45;&gt;assets/ai&#45;stars.png</title>
<path fill="none" stroke="#757575" d="M366.8,-150.25C392.49,-155.1 422.11,-160.69 448.65,-165.7"/>
<polygon fill="#757575" stroke="#757575" points="447.85,-169.11 458.33,-167.53 449.15,-162.23 447.85,-169.11"/>
</g>
<!-- DocumentViewer.css -->
<g id="node12" class="node">
<title>DocumentViewer.css</title>
<path fill="none" stroke="#cfffac" d="M588.21,-149.75C588.21,-149.75 461.29,-149.75 461.29,-149.75 457.33,-149.75 453.38,-145.79 453.38,-141.83 453.38,-141.83 453.38,-133.92 453.38,-133.92 453.38,-129.96 457.33,-126 461.29,-126 461.29,-126 588.21,-126 588.21,-126 592.17,-126 596.12,-129.96 596.12,-133.92 596.12,-133.92 596.12,-141.83 596.12,-141.83 596.12,-145.79 592.17,-149.75 588.21,-149.75"/>
<text text-anchor="middle" x="524.75" y="-132.45" font-family="Arial" font-size="14.00" fill="#cfffac">DocumentViewer.css</text>
</g>
<!-- DocumentViewer.jsx&#45;&gt;DocumentViewer.css -->
<g id="edge11" class="edge">
<title>DocumentViewer.jsx&#45;&gt;DocumentViewer.css</title>
<path fill="none" stroke="#757575" d="M370.13,-137.88C392.72,-137.88 418.06,-137.88 441.54,-137.88"/>
<polygon fill="#757575" stroke="#757575" points="441.38,-141.38 451.38,-137.88 441.38,-134.38 441.38,-141.38"/>
</g>
<!-- EditPage.css -->
<g id="node13" class="node">
<title>EditPage.css</title>
<path fill="none" stroke="#cfffac" d="M564.21,-23.75C564.21,-23.75 485.29,-23.75 485.29,-23.75 481.33,-23.75 477.38,-19.79 477.38,-15.83 477.38,-15.83 477.38,-7.92 477.38,-7.92 477.38,-3.96 481.33,0 485.29,0 485.29,0 564.21,0 564.21,0 568.17,0 572.12,-3.96 572.12,-7.92 572.12,-7.92 572.12,-15.83 572.12,-15.83 572.12,-19.79 568.17,-23.75 564.21,-23.75"/>
<text text-anchor="middle" x="524.75" y="-6.45" font-family="Arial" font-size="14.00" fill="#cfffac">EditPage.css</text>
</g>
<!-- EditPage.jsx&#45;&gt;EditPage.css -->
<g id="edge13" class="edge">
<title>EditPage.jsx&#45;&gt;EditPage.css</title>
<path fill="none" stroke="#757575" d="M346.01,-28.65C380.51,-25.39 428.49,-20.87 465.9,-17.33"/>
<polygon fill="#757575" stroke="#757575" points="466.01,-20.84 475.64,-16.42 465.36,-13.87 466.01,-20.84"/>
</g>
<!-- index.css -->
<g id="node14" class="node">
<title>index.css</title>
<path fill="none" stroke="#cfffac" d="M166.58,-128.75C166.58,-128.75 110.17,-128.75 110.17,-128.75 106.21,-128.75 102.25,-124.79 102.25,-120.83 102.25,-120.83 102.25,-112.92 102.25,-112.92 102.25,-108.96 106.21,-105 110.17,-105 110.17,-105 166.58,-105 166.58,-105 170.54,-105 174.5,-108.96 174.5,-112.92 174.5,-112.92 174.5,-120.83 174.5,-120.83 174.5,-124.79 170.54,-128.75 166.58,-128.75"/>
<text text-anchor="middle" x="138.38" y="-111.45" font-family="Arial" font-size="14.00" fill="#cfffac">index.css</text>
</g>
<!-- main.jsx -->
<g id="node15" class="node">
<title>main.jsx</title>
<path fill="none" stroke="#c6c5fe" d="M58.33,-149.75C58.33,-149.75 7.92,-149.75 7.92,-149.75 3.96,-149.75 0,-145.79 0,-141.83 0,-141.83 0,-133.92 0,-133.92 0,-129.96 3.96,-126 7.92,-126 7.92,-126 58.33,-126 58.33,-126 62.29,-126 66.25,-129.96 66.25,-133.92 66.25,-133.92 66.25,-141.83 66.25,-141.83 66.25,-145.79 62.29,-149.75 58.33,-149.75"/>
<text text-anchor="middle" x="33.12" y="-132.45" font-family="Arial" font-size="14.00" fill="#c6c5fe">main.jsx</text>
</g>
<!-- main.jsx&#45;&gt;App.jsx -->
<g id="edge14" class="edge">
<title>main.jsx&#45;&gt;App.jsx</title>
<path fill="none" stroke="#757575" d="M66.51,-144.46C76.14,-146.42 86.8,-148.59 96.88,-150.64"/>
<polygon fill="#757575" stroke="#757575" points="95.93,-154.02 106.43,-152.58 97.32,-147.16 95.93,-154.02"/>
</g>
<!-- main.jsx&#45;&gt;index.css -->
<g id="edge15" class="edge">
<title>main.jsx&#45;&gt;index.css</title>
<path fill="none" stroke="#757575" d="M66.51,-131.29C74.24,-129.72 82.63,-128.01 90.85,-126.34"/>
<polygon fill="#757575" stroke="#757575" points="91.29,-129.82 100.39,-124.4 89.9,-122.96 91.29,-129.82"/>
</g>
</g>
</svg>
