<?xml version="1.0" encoding="UTF-8" standalone="no"?>
<!DOCTYPE svg PUBLIC "-//W3C//DTD SVG 1.1//EN"
 "http://www.w3.org/Graphics/SVG/1.1/DTD/svg11.dtd">
<!-- Generated by graphviz version 12.2.1 (20241206.2353)
 -->
<!-- Title: dependency&#45;cruiser output Pages: 1 -->
<svg width="454pt" height="252pt"
 viewBox="0.00 0.00 454.00 252.00" xmlns="http://www.w3.org/2000/svg" xmlns:xlink="http://www.w3.org/1999/xlink">
<g id="graph0" class="graph" transform="scale(1 1) rotate(0) translate(4 248)">
<title>dependency&#45;cruiser output</title>
<polygon fill="white" stroke="none" points="-4,4 -4,-248 450,-248 450,4 -4,4"/>
<g id="clust1" class="cluster">
<title>cluster_src</title>
<path fill="#ffffff" stroke="black" stroke-width="2" d="M20,-8C20,-8 426,-8 426,-8 432,-8 438,-14 438,-20 438,-20 438,-224 438,-224 438,-230 432,-236 426,-236 426,-236 20,-236 20,-236 14,-236 8,-230 8,-224 8,-224 8,-20 8,-20 8,-14 14,-8 20,-8"/>
<text text-anchor="middle" x="223" y="-223.45" font-family="Helvetica,sans-Serif" font-weight="bold" font-size="9.00">src</text>
</g>
<g id="clust2" class="cluster">
<title>cluster_src/assets</title>
<path fill="#ffffff" stroke="black" stroke-width="2" d="M332.12,-42C332.12,-42 388.12,-42 388.12,-42 394.12,-42 400.12,-48 400.12,-54 400.12,-54 400.12,-82 400.12,-82 400.12,-88 394.12,-94 388.12,-94 388.12,-94 332.12,-94 332.12,-94 326.12,-94 320.12,-88 320.12,-82 320.12,-82 320.12,-54 320.12,-54 320.12,-48 326.12,-42 332.12,-42"/>
<text text-anchor="middle" x="360.12" y="-81.45" font-family="Helvetica,sans-Serif" font-weight="bold" font-size="9.00">assets</text>
</g>
<!-- src/App.css -->
<g id="node1" class="node">
<title>src/App.css</title>
<g id="a_node1"><a xlink:href="src/App.css" xlink:title="App.css">
<path fill="#ffffcc" stroke="black" d="M234.83,-33.88C234.83,-33.88 192.67,-33.88 192.67,-33.88 189.71,-33.88 186.75,-30.92 186.75,-27.96 186.75,-27.96 186.75,-22.04 186.75,-22.04 186.75,-19.08 189.71,-16.12 192.67,-16.12 192.67,-16.12 234.83,-16.12 234.83,-16.12 237.79,-16.12 240.75,-19.08 240.75,-22.04 240.75,-22.04 240.75,-27.96 240.75,-27.96 240.75,-30.92 237.79,-33.88 234.83,-33.88"/>
<text text-anchor="start" x="197.62" y="-21.32" font-family="Helvetica,sans-Serif" font-size="9.00">App.css</text>
</a>
</g>
</g>
<!-- src/App.jsx -->
<g id="node2" class="node">
<title>src/App.jsx</title>
<g id="a_node2"><a xlink:href="src/App.jsx" xlink:title="App.jsx">
<path fill="#ffff77" stroke="black" d="M131.21,-108.88C131.21,-108.88 89.04,-108.88 89.04,-108.88 86.08,-108.88 83.12,-105.92 83.12,-102.96 83.12,-102.96 83.12,-97.04 83.12,-97.04 83.12,-94.08 86.08,-91.12 89.04,-91.12 89.04,-91.12 131.21,-91.12 131.21,-91.12 134.17,-91.12 137.12,-94.08 137.12,-97.04 137.12,-97.04 137.12,-102.96 137.12,-102.96 137.12,-105.92 134.17,-108.88 131.21,-108.88"/>
<text text-anchor="start" x="95.12" y="-96.33" font-family="Helvetica,sans-Serif" font-size="9.00">App.jsx</text>
</a>
</g>
</g>
<!-- src/App.jsx&#45;&gt;src/App.css -->
<g id="edge1" class="edge">
<title>src/App.jsx&#45;&gt;src/App.css</title>
<path fill="none" stroke="#000000" stroke-width="2" stroke-opacity="0.200000" d="M114.59,-90.69C120.05,-77.32 131.96,-52.9 150.25,-40 158.28,-34.34 168.18,-30.8 177.71,-28.59"/>
<polygon fill="#000000" fill-opacity="0.200000" stroke="#000000" stroke-width="2" stroke-opacity="0.200000" points="177.84,-30.7 183.33,-27.49 177.04,-26.58 177.84,-30.7"/>
</g>
<!-- src/BrowsePage.jsx -->
<g id="node3" class="node">
<title>src/BrowsePage.jsx</title>
<g id="a_node3"><a xlink:href="src/BrowsePage.jsx" xlink:title="BrowsePage.jsx">
<path fill="#ffff77" stroke="black" d="M248.83,-63.88C248.83,-63.88 178.67,-63.88 178.67,-63.88 175.71,-63.88 172.75,-60.92 172.75,-57.96 172.75,-57.96 172.75,-52.04 172.75,-52.04 172.75,-49.08 175.71,-46.12 178.67,-46.12 178.67,-46.12 248.83,-46.12 248.83,-46.12 251.79,-46.12 254.75,-49.08 254.75,-52.04 254.75,-52.04 254.75,-57.96 254.75,-57.96 254.75,-60.92 251.79,-63.88 248.83,-63.88"/>
<text text-anchor="start" x="180.75" y="-51.33" font-family="Helvetica,sans-Serif" font-size="9.00">BrowsePage.jsx</text>
</a>
</g>
</g>
<!-- src/App.jsx&#45;&gt;src/BrowsePage.jsx -->
<g id="edge2" class="edge">
<title>src/App.jsx&#45;&gt;src/BrowsePage.jsx</title>
<path fill="none" stroke="#000000" stroke-width="2" stroke-opacity="0.200000" d="M120.65,-90.84C128.14,-84.13 139.12,-75.3 150.25,-70 154.59,-67.93 159.25,-66.13 163.98,-64.57"/>
<polygon fill="#000000" fill-opacity="0.200000" stroke="#000000" stroke-width="2" stroke-opacity="0.200000" points="164.5,-66.61 169.65,-62.88 163.3,-62.58 164.5,-66.61"/>
</g>
<!-- src/DocumentListPage.jsx -->
<g id="node4" class="node">
<title>src/DocumentListPage.jsx</title>
<g id="a_node4"><a xlink:href="src/DocumentListPage.jsx" xlink:title="DocumentListPage.jsx">
<path fill="#ffff77" stroke="black" d="M261.58,-93.88C261.58,-93.88 165.92,-93.88 165.92,-93.88 162.96,-93.88 160,-90.92 160,-87.96 160,-87.96 160,-82.04 160,-82.04 160,-79.08 162.96,-76.12 165.92,-76.12 165.92,-76.12 261.58,-76.12 261.58,-76.12 264.54,-76.12 267.5,-79.08 267.5,-82.04 267.5,-82.04 267.5,-87.96 267.5,-87.96 267.5,-90.92 264.54,-93.88 261.58,-93.88"/>
<text text-anchor="start" x="168" y="-81.33" font-family="Helvetica,sans-Serif" font-size="9.00">DocumentListPage.jsx</text>
</a>
</g>
</g>
<!-- src/App.jsx&#45;&gt;src/DocumentListPage.jsx -->
<g id="edge3" class="edge">
<title>src/App.jsx&#45;&gt;src/DocumentListPage.jsx</title>
<path fill="none" stroke="#000000" stroke-width="2" stroke-opacity="0.200000" d="M137.56,-96.1C141.72,-95.48 146.16,-94.83 150.73,-94.15"/>
<polygon fill="#000000" fill-opacity="0.200000" stroke="#000000" stroke-width="2" stroke-opacity="0.200000" points="151.01,-96.24 156.64,-93.28 150.4,-92.08 151.01,-96.24"/>
</g>
<!-- src/DocumentManagePage.jsx -->
<g id="node5" class="node">
<title>src/DocumentManagePage.jsx</title>
<g id="a_node5"><a xlink:href="src/DocumentManagePage.jsx" xlink:title="DocumentManagePage.jsx">
<path fill="#ffff77" stroke="black" d="M271.33,-153.88C271.33,-153.88 156.17,-153.88 156.17,-153.88 153.21,-153.88 150.25,-150.92 150.25,-147.96 150.25,-147.96 150.25,-142.04 150.25,-142.04 150.25,-139.08 153.21,-136.12 156.17,-136.12 156.17,-136.12 271.33,-136.12 271.33,-136.12 274.29,-136.12 277.25,-139.08 277.25,-142.04 277.25,-142.04 277.25,-147.96 277.25,-147.96 277.25,-150.92 274.29,-153.88 271.33,-153.88"/>
<text text-anchor="start" x="158.25" y="-141.32" font-family="Helvetica,sans-Serif" font-size="9.00">DocumentManagePage.jsx</text>
</a>
</g>
</g>
<!-- src/App.jsx&#45;&gt;src/DocumentManagePage.jsx -->
<g id="edge4" class="edge">
<title>src/App.jsx&#45;&gt;src/DocumentManagePage.jsx</title>
<path fill="none" stroke="#000000" stroke-width="2" stroke-opacity="0.200000" d="M129.08,-109.24C131.92,-111 134.75,-112.94 137.25,-115 144.06,-120.61 142.71,-125.42 150.25,-130 151.38,-130.69 152.54,-131.34 153.73,-131.97"/>
<polygon fill="#000000" fill-opacity="0.200000" stroke="#000000" stroke-width="2" stroke-opacity="0.200000" points="152.77,-133.84 159.1,-134.43 154.52,-130.02 152.77,-133.84"/>
</g>
<!-- src/DocumentViewer.jsx -->
<g id="node6" class="node">
<title>src/DocumentViewer.jsx</title>
<g id="a_node6"><a xlink:href="src/DocumentViewer.jsx" xlink:title="DocumentViewer.jsx">
<path fill="#ffff77" stroke="black" d="M257.83,-123.88C257.83,-123.88 169.67,-123.88 169.67,-123.88 166.71,-123.88 163.75,-120.92 163.75,-117.96 163.75,-117.96 163.75,-112.04 163.75,-112.04 163.75,-109.08 166.71,-106.12 169.67,-106.12 169.67,-106.12 257.83,-106.12 257.83,-106.12 260.79,-106.12 263.75,-109.08 263.75,-112.04 263.75,-112.04 263.75,-117.96 263.75,-117.96 263.75,-120.92 260.79,-123.88 257.83,-123.88"/>
<text text-anchor="start" x="171.75" y="-111.33" font-family="Helvetica,sans-Serif" font-size="9.00">DocumentViewer.jsx</text>
</a>
</g>
</g>
<!-- src/App.jsx&#45;&gt;src/DocumentViewer.jsx -->
<g id="edge5" class="edge">
<title>src/App.jsx&#45;&gt;src/DocumentViewer.jsx</title>
<path fill="none" stroke="#000000" stroke-width="2" stroke-opacity="0.200000" d="M137.56,-103.9C142.93,-104.7 148.78,-105.56 154.77,-106.44"/>
<polygon fill="#000000" fill-opacity="0.200000" stroke="#000000" stroke-width="2" stroke-opacity="0.200000" points="154.36,-108.5 160.6,-107.3 154.97,-104.35 154.36,-108.5"/>
</g>
<!-- src/EditPage.jsx -->
<g id="node7" class="node">
<title>src/EditPage.jsx</title>
<g id="a_node7"><a xlink:href="src/EditPage.jsx" xlink:title="EditPage.jsx">
<path fill="#ffff77" stroke="black" d="M241.33,-196.88C241.33,-196.88 186.17,-196.88 186.17,-196.88 183.21,-196.88 180.25,-193.92 180.25,-190.96 180.25,-190.96 180.25,-185.04 180.25,-185.04 180.25,-182.08 183.21,-179.12 186.17,-179.12 186.17,-179.12 241.33,-179.12 241.33,-179.12 244.29,-179.12 247.25,-182.08 247.25,-185.04 247.25,-185.04 247.25,-190.96 247.25,-190.96 247.25,-193.92 244.29,-196.88 241.33,-196.88"/>
<text text-anchor="start" x="188.25" y="-184.32" font-family="Helvetica,sans-Serif" font-size="9.00">EditPage.jsx</text>
</a>
</g>
</g>
<!-- src/App.jsx&#45;&gt;src/EditPage.jsx -->
<g id="edge6" class="edge">
<title>src/App.jsx&#45;&gt;src/EditPage.jsx</title>
<path fill="none" stroke="#000000" stroke-width="2" stroke-opacity="0.200000" d="M131.26,-109.32C133.5,-110.97 135.57,-112.86 137.25,-115 150.1,-131.38 136.59,-144.29 150.25,-160 156.04,-166.66 163.73,-171.82 171.73,-175.78"/>
<polygon fill="#000000" fill-opacity="0.200000" stroke="#000000" stroke-width="2" stroke-opacity="0.200000" points="170.67,-177.6 177.01,-178.12 172.38,-173.77 170.67,-177.6"/>
</g>
<!-- src/BrowsePage.css -->
<g id="node8" class="node">
<title>src/BrowsePage.css</title>
<g id="a_node8"><a xlink:href="src/BrowsePage.css" xlink:title="BrowsePage.css">
<path fill="#ffffcc" stroke="black" d="M396.33,-33.88C396.33,-33.88 323.92,-33.88 323.92,-33.88 320.96,-33.88 318,-30.92 318,-27.96 318,-27.96 318,-22.04 318,-22.04 318,-19.08 320.96,-16.12 323.92,-16.12 323.92,-16.12 396.33,-16.12 396.33,-16.12 399.29,-16.12 402.25,-19.08 402.25,-22.04 402.25,-22.04 402.25,-27.96 402.25,-27.96 402.25,-30.92 399.29,-33.88 396.33,-33.88"/>
<text text-anchor="start" x="326" y="-21.32" font-family="Helvetica,sans-Serif" font-size="9.00">BrowsePage.css</text>
</a>
</g>
</g>
<!-- src/BrowsePage.jsx&#45;&gt;src/BrowsePage.css -->
<g id="edge8" class="edge">
<title>src/BrowsePage.jsx&#45;&gt;src/BrowsePage.css</title>
<path fill="none" stroke="#000000" stroke-width="2" stroke-opacity="0.200000" d="M255.1,-46.39C266.46,-43.98 278.84,-41.37 290.25,-39 296.33,-37.74 302.71,-36.43 309.04,-35.13"/>
<polygon fill="#000000" fill-opacity="0.200000" stroke="#000000" stroke-width="2" stroke-opacity="0.200000" points="309.17,-37.25 314.63,-33.99 308.33,-33.13 309.17,-37.25"/>
</g>
<!-- src/assets/ai&#45;stars.png -->
<g id="node9" class="node">
<title>src/assets/ai&#45;stars.png</title>
<g id="a_node9"><a xlink:href="src/assets/ai-stars.png" xlink:title="ai&#45;stars.png">
<path fill="#ffffcc" stroke="black" d="M386.21,-67.88C386.21,-67.88 334.04,-67.88 334.04,-67.88 331.08,-67.88 328.12,-64.92 328.12,-61.96 328.12,-61.96 328.12,-56.04 328.12,-56.04 328.12,-53.08 331.08,-50.12 334.04,-50.12 334.04,-50.12 386.21,-50.12 386.21,-50.12 389.17,-50.12 392.12,-53.08 392.12,-56.04 392.12,-56.04 392.12,-61.96 392.12,-61.96 392.12,-64.92 389.17,-67.88 386.21,-67.88"/>
<text text-anchor="start" x="336.12" y="-55.33" font-family="Helvetica,sans-Serif" font-size="9.00">ai&#45;stars.png</text>
</a>
</g>
</g>
<!-- src/BrowsePage.jsx&#45;&gt;src/assets/ai&#45;stars.png -->
<g id="edge7" class="edge">
<title>src/BrowsePage.jsx&#45;&gt;src/assets/ai&#45;stars.png</title>
<path fill="none" stroke="#000000" stroke-width="2" stroke-opacity="0.200000" d="M254.97,-56.11C274.94,-56.67 299,-57.33 318.96,-57.89"/>
<polygon fill="#000000" fill-opacity="0.200000" stroke="#000000" stroke-width="2" stroke-opacity="0.200000" points="318.73,-59.98 324.79,-58.05 318.85,-55.78 318.73,-59.98"/>
</g>
<!-- src/DocumentManagePage.css -->
<g id="node10" class="node">
<title>src/DocumentManagePage.css</title>
<g id="a_node10"><a xlink:href="src/DocumentManagePage.css" xlink:title="DocumentManagePage.css">
<path fill="#ffffcc" stroke="black" d="M418.83,-149.88C418.83,-149.88 301.42,-149.88 301.42,-149.88 298.46,-149.88 295.5,-146.92 295.5,-143.96 295.5,-143.96 295.5,-138.04 295.5,-138.04 295.5,-135.08 298.46,-132.12 301.42,-132.12 301.42,-132.12 418.83,-132.12 418.83,-132.12 421.79,-132.12 424.75,-135.08 424.75,-138.04 424.75,-138.04 424.75,-143.96 424.75,-143.96 424.75,-146.92 421.79,-149.88 418.83,-149.88"/>
<text text-anchor="start" x="303.5" y="-137.32" font-family="Helvetica,sans-Serif" font-size="9.00">DocumentManagePage.css</text>
</a>
</g>
</g>
<!-- src/DocumentManagePage.jsx&#45;&gt;src/DocumentManagePage.css -->
<g id="edge9" class="edge">
<title>src/DocumentManagePage.jsx&#45;&gt;src/DocumentManagePage.css</title>
<path fill="none" stroke="#000000" stroke-width="2" stroke-opacity="0.200000" d="M277.65,-143.26C280.45,-143.18 283.27,-143.1 286.09,-143.02"/>
<polygon fill="#000000" fill-opacity="0.200000" stroke="#000000" stroke-width="2" stroke-opacity="0.200000" points="286.11,-145.12 292.05,-142.86 285.99,-140.93 286.11,-145.12"/>
</g>
<!-- src/DocumentManageSidebar.css -->
<g id="node11" class="node">
<title>src/DocumentManageSidebar.css</title>
<g id="a_node11"><a xlink:href="src/DocumentManageSidebar.css" xlink:title="DocumentManageSidebar.css">
<path fill="#ffffcc" stroke="black" d="M424.08,-179.88C424.08,-179.88 296.17,-179.88 296.17,-179.88 293.21,-179.88 290.25,-176.92 290.25,-173.96 290.25,-173.96 290.25,-168.04 290.25,-168.04 290.25,-165.08 293.21,-162.12 296.17,-162.12 296.17,-162.12 424.08,-162.12 424.08,-162.12 427.04,-162.12 430,-165.08 430,-168.04 430,-168.04 430,-173.96 430,-173.96 430,-176.92 427.04,-179.88 424.08,-179.88"/>
<text text-anchor="start" x="298.25" y="-167.32" font-family="Helvetica,sans-Serif" font-size="9.00">DocumentManageSidebar.css</text>
</a>
</g>
</g>
<!-- src/DocumentManagePage.jsx&#45;&gt;src/DocumentManageSidebar.css -->
<g id="edge10" class="edge">
<title>src/DocumentManagePage.jsx&#45;&gt;src/DocumentManageSidebar.css</title>
<path fill="none" stroke="#000000" stroke-width="2" stroke-opacity="0.200000" d="M266.46,-154.31C276.83,-156.18 287.81,-158.16 298.45,-160.07"/>
<polygon fill="#000000" fill-opacity="0.200000" stroke="#000000" stroke-width="2" stroke-opacity="0.200000" points="298.03,-162.13 304.31,-161.13 298.77,-158 298.03,-162.13"/>
</g>
<!-- src/DocumentViewer.jsx&#45;&gt;src/assets/ai&#45;stars.png -->
<g id="edge11" class="edge">
<title>src/DocumentViewer.jsx&#45;&gt;src/assets/ai&#45;stars.png</title>
<path fill="none" stroke="#000000" stroke-width="2" stroke-opacity="0.200000" d="M264.22,-107.71C268.91,-105.71 273.36,-103.18 277.25,-100 287.87,-91.31 279.42,-80.43 290.25,-72 298.42,-65.64 308.77,-62.07 318.94,-60.14"/>
<polygon fill="#000000" fill-opacity="0.200000" stroke="#000000" stroke-width="2" stroke-opacity="0.200000" points="319.15,-62.23 324.78,-59.28 318.54,-58.08 319.15,-62.23"/>
</g>
<!-- src/DocumentViewer.css -->
<g id="node12" class="node">
<title>src/DocumentViewer.css</title>
<g id="a_node12"><a xlink:href="src/DocumentViewer.css" xlink:title="DocumentViewer.css">
<path fill="#ffffcc" stroke="black" d="M405.33,-119.88C405.33,-119.88 314.92,-119.88 314.92,-119.88 311.96,-119.88 309,-116.92 309,-113.96 309,-113.96 309,-108.04 309,-108.04 309,-105.08 311.96,-102.12 314.92,-102.12 314.92,-102.12 405.33,-102.12 405.33,-102.12 408.29,-102.12 411.25,-105.08 411.25,-108.04 411.25,-108.04 411.25,-113.96 411.25,-113.96 411.25,-116.92 408.29,-119.88 405.33,-119.88"/>
<text text-anchor="start" x="317" y="-107.33" font-family="Helvetica,sans-Serif" font-size="9.00">DocumentViewer.css</text>
</a>
</g>
</g>
<!-- src/DocumentViewer.jsx&#45;&gt;src/DocumentViewer.css -->
<g id="edge12" class="edge">
<title>src/DocumentViewer.jsx&#45;&gt;src/DocumentViewer.css</title>
<path fill="none" stroke="#000000" stroke-width="2" stroke-opacity="0.200000" d="M264.03,-113.63C275.49,-113.32 287.8,-112.98 299.65,-112.65"/>
<polygon fill="#000000" fill-opacity="0.200000" stroke="#000000" stroke-width="2" stroke-opacity="0.200000" points="299.63,-114.75 305.57,-112.48 299.51,-110.55 299.63,-114.75"/>
</g>
<!-- src/EditPage.css -->
<g id="node13" class="node">
<title>src/EditPage.css</title>
<g id="a_node13"><a xlink:href="src/EditPage.css" xlink:title="EditPage.css">
<path fill="#ffffcc" stroke="black" d="M388.83,-209.88C388.83,-209.88 331.42,-209.88 331.42,-209.88 328.46,-209.88 325.5,-206.92 325.5,-203.96 325.5,-203.96 325.5,-198.04 325.5,-198.04 325.5,-195.08 328.46,-192.12 331.42,-192.12 331.42,-192.12 388.83,-192.12 388.83,-192.12 391.79,-192.12 394.75,-195.08 394.75,-198.04 394.75,-198.04 394.75,-203.96 394.75,-203.96 394.75,-206.92 391.79,-209.88 388.83,-209.88"/>
<text text-anchor="start" x="333.5" y="-197.32" font-family="Helvetica,sans-Serif" font-size="9.00">EditPage.css</text>
</a>
</g>
</g>
<!-- src/EditPage.jsx&#45;&gt;src/EditPage.css -->
<g id="edge13" class="edge">
<title>src/EditPage.jsx&#45;&gt;src/EditPage.css</title>
<path fill="none" stroke="#000000" stroke-width="2" stroke-opacity="0.200000" d="M247.51,-190.95C267.91,-192.79 294.37,-195.17 316.41,-197.15"/>
<polygon fill="#000000" fill-opacity="0.200000" stroke="#000000" stroke-width="2" stroke-opacity="0.200000" points="316.06,-199.23 322.22,-197.68 316.44,-195.05 316.06,-199.23"/>
</g>
<!-- src/index.css -->
<g id="node14" class="node">
<title>src/index.css</title>
<g id="a_node14"><a xlink:href="src/index.css" xlink:title="index.css">
<path fill="#ffffcc" stroke="black" d="M131.33,-138.88C131.33,-138.88 88.92,-138.88 88.92,-138.88 85.96,-138.88 83,-135.92 83,-132.96 83,-132.96 83,-127.04 83,-127.04 83,-124.08 85.96,-121.12 88.92,-121.12 88.92,-121.12 131.33,-121.12 131.33,-121.12 134.29,-121.12 137.25,-124.08 137.25,-127.04 137.25,-127.04 137.25,-132.96 137.25,-132.96 137.25,-135.92 134.29,-138.88 131.33,-138.88"/>
<text text-anchor="start" x="91" y="-126.33" font-family="Helvetica,sans-Serif" font-size="9.00">index.css</text>
</a>
</g>
</g>
<!-- src/main.jsx -->
<g id="node15" class="node">
<title>src/main.jsx</title>
<g id="a_node15"><a xlink:href="src/main.jsx" xlink:title="main.jsx">
<path fill="#ffff77" stroke="black" d="M64.08,-123.88C64.08,-123.88 21.92,-123.88 21.92,-123.88 18.96,-123.88 16,-120.92 16,-117.96 16,-117.96 16,-112.04 16,-112.04 16,-109.08 18.96,-106.12 21.92,-106.12 21.92,-106.12 64.08,-106.12 64.08,-106.12 67.04,-106.12 70,-109.08 70,-112.04 70,-112.04 70,-117.96 70,-117.96 70,-120.92 67.04,-123.88 64.08,-123.88"/>
<text text-anchor="start" x="26.12" y="-111.33" font-family="Helvetica,sans-Serif" font-size="9.00">main.jsx</text>
</a>
</g>
</g>
<!-- src/main.jsx&#45;&gt;src/App.jsx -->
<g id="edge14" class="edge">
<title>src/main.jsx&#45;&gt;src/App.jsx</title>
<path fill="none" stroke="#000000" stroke-width="2" stroke-opacity="0.200000" d="M70.49,-108.9C71.77,-108.6 73.05,-108.31 74.35,-108.01"/>
<polygon fill="#000000" fill-opacity="0.200000" stroke="#000000" stroke-width="2" stroke-opacity="0.200000" points="74.55,-110.12 79.92,-106.73 73.6,-106.03 74.55,-110.12"/>
</g>
<!-- src/main.jsx&#45;&gt;src/index.css -->
<g id="edge15" class="edge">
<title>src/main.jsx&#45;&gt;src/index.css</title>
<path fill="none" stroke="#000000" stroke-width="2" stroke-opacity="0.200000" d="M70.49,-121.1C71.77,-121.4 73.05,-121.69 74.35,-121.99"/>
<polygon fill="#000000" fill-opacity="0.200000" stroke="#000000" stroke-width="2" stroke-opacity="0.200000" points="73.6,-123.97 79.92,-123.27 74.55,-119.88 73.6,-123.97"/>
</g>
</g>
</svg>
